<svg width="300" height="83" viewBox="0 0 300 83" fill="none" xmlns="http://www.w3.org/2000/svg">
<path d="M37.5001 0C27.3156 0 26.0386 0.0472381 22.0388 0.246688C18.0473 0.445772 15.3214 1.13896 12.936 2.15232C10.47 3.20011 8.37876 4.60212 6.29406 6.88138C4.20925 9.16065 2.92693 11.4474 1.9687 14.1435C1.04162 16.7513 0.40783 19.7317 0.225518 24.0957C0.043094 28.4688 0 29.8651 0 41.0001C0 52.1349 0.043094 53.5312 0.225518 57.9043C0.40783 62.2683 1.04162 65.2487 1.9687 67.8565C2.92704 70.5526 4.20936 72.8391 6.29406 75.1186C8.37887 77.3979 10.47 78.7999 12.936 79.8477C15.3214 80.861 18.0473 81.5541 22.0388 81.7533C26.0386 81.9528 27.3156 82 37.5001 82C47.6843 82 48.9614 81.9528 52.9612 81.7533C56.9527 81.5542 59.6786 80.861 62.0639 79.8477C64.5298 78.7999 66.6211 77.3979 68.706 75.1186C70.7907 72.8391 72.0731 70.5526 73.0314 67.8565C73.9583 65.2487 74.5923 62.2683 74.7744 57.9043C74.9568 53.5312 75 52.1349 75 41.0001C75 29.8651 74.9568 28.4688 74.7744 24.0957C74.5923 19.7317 73.9583 16.7513 73.0314 14.1435C72.0731 11.4474 70.7907 9.16065 68.706 6.88138C66.6211 4.60212 64.5298 3.20011 62.0639 2.15232C59.6786 1.13896 56.9527 0.445772 52.9612 0.246688C48.9614 0.0472381 47.6843 0 37.5001 0ZM37.5001 7.38733C47.5129 7.38733 48.699 7.4292 52.6532 7.62645C56.3095 7.80869 58.2951 8.47662 59.6164 9.0381C61.3669 9.78195 62.6161 10.6703 63.9282 12.105C65.2406 13.5398 66.0531 14.9056 66.7334 16.8193C67.247 18.2641 67.8579 20.4351 68.0246 24.4325C68.205 28.7558 68.2433 30.0526 68.2433 41C68.2433 51.9474 68.205 53.2442 68.0246 57.5675C67.8579 61.5651 67.247 63.7359 66.7334 65.1805C66.0531 67.0945 65.2406 68.4602 63.9282 69.8948C62.6161 71.3297 61.3668 72.218 59.6165 72.9619C58.2951 73.5234 56.3094 74.1913 52.6532 74.3735C48.6996 74.5708 47.5137 74.6127 37.5 74.6127C27.4864 74.6127 26.3006 74.5708 22.3468 74.3734C18.6905 74.1913 16.7049 73.5234 15.3836 72.9619C13.6331 72.218 12.3839 71.3297 11.0718 69.8948C9.75955 68.4602 8.94691 67.0944 8.26656 65.1807C7.753 63.7359 7.14221 61.5649 6.97541 57.5675C6.795 53.2442 6.75671 51.9474 6.75671 41C6.75671 30.0526 6.795 28.7558 6.97541 24.4325C7.14221 20.4349 7.753 18.2641 8.26656 16.8195C8.94691 14.9055 9.75955 13.5398 11.0717 12.1052C12.3839 10.6703 13.6332 9.78195 15.3835 9.0381C16.7049 8.47662 18.6906 7.80869 22.3468 7.62645C26.301 7.4292 27.4871 7.38733 37.5 7.38733" fill="#7B878D"/>
<mask id="path-2-inside-1" fill="white">
<path d="M37.5001 54.6667C30.5964 54.6667 25 48.548 25 41.0001C25 33.452 30.5964 27.3333 37.5001 27.3333C44.4036 27.3333 50 33.452 50 41.0001C50 48.548 44.4036 54.6667 37.5001 54.6667ZM37.5001 19.946C26.8647 19.946 18.2433 29.3721 18.2433 41.0001C18.2433 52.6279 26.8647 62.054 37.5001 62.054C48.1353 62.054 56.7567 52.6279 56.7567 41.0001C56.7567 29.3721 48.1353 19.946 37.5001 19.946V19.946ZM62.0177 19.1141C62.0177 21.8314 60.0029 24.0341 57.5176 24.0341C55.0324 24.0341 53.0176 21.8314 53.0176 19.1141C53.0176 16.3969 55.0324 14.194 57.5176 14.194C60.0029 14.194 62.0177 16.3969 62.0177 19.1141"/>
</mask>
<path d="M37.5001 54.6667C30.5964 54.6667 25 48.548 25 41.0001C25 33.452 30.5964 27.3333 37.5001 27.3333C44.4036 27.3333 50 33.452 50 41.0001C50 48.548 44.4036 54.6667 37.5001 54.6667ZM37.5001 19.946C26.8647 19.946 18.2433 29.3721 18.2433 41.0001C18.2433 52.6279 26.8647 62.054 37.5001 62.054C48.1353 62.054 56.7567 52.6279 56.7567 41.0001C56.7567 29.3721 48.1353 19.946 37.5001 19.946V19.946ZM62.0177 19.1141C62.0177 21.8314 60.0029 24.0341 57.5176 24.0341C55.0324 24.0341 53.0176 21.8314 53.0176 19.1141C53.0176 16.3969 55.0324 14.194 57.5176 14.194C60.0029 14.194 62.0177 16.3969 62.0177 19.1141" fill="#7B878D"/>
<path d="M37.5001 53.6667C31.2308 53.6667 26 48.0815 26 41.0001H24C24 49.0144 29.962 55.6667 37.5001 55.6667V53.6667ZM26 41.0001C26 33.9184 31.2308 28.3333 37.5001 28.3333V26.3333C29.962 26.3333 24 32.9856 24 41.0001H26ZM37.5001 28.3333C43.7692 28.3333 49 33.9184 49 41.0001H51C51 32.9856 45.038 26.3333 37.5001 26.3333V28.3333ZM49 41.0001C49 48.0815 43.7692 53.6667 37.5001 53.6667V55.6667C45.038 55.6667 51 49.0144 51 41.0001H49ZM37.5001 18.946C26.2303 18.946 17.2433 28.9057 17.2433 41.0001H19.2433C19.2433 29.8385 27.4991 20.946 37.5001 20.946V18.946ZM17.2433 41.0001C17.2433 53.0943 26.2303 63.054 37.5001 63.054V61.054C27.4991 61.054 19.2433 52.1615 19.2433 41.0001H17.2433ZM37.5001 63.054C48.7697 63.054 57.7567 53.0943 57.7567 41.0001H55.7567C55.7567 52.1615 47.5009 61.054 37.5001 61.054V63.054ZM57.7567 41.0001C57.7567 28.9057 48.7697 18.946 37.5001 18.946V20.946C47.5009 20.946 55.7567 29.8385 55.7567 41.0001H57.7567ZM61.0177 19.1141C61.0177 21.365 59.3685 23.0341 57.5176 23.0341V25.0341C60.6372 25.0341 63.0177 22.2979 63.0177 19.1141H61.0177ZM57.5176 23.0341C55.6668 23.0341 54.0176 21.365 54.0176 19.1141H52.0176C52.0176 22.2979 54.3981 25.0341 57.5176 25.0341V23.0341ZM54.0176 19.1141C54.0176 16.8633 55.6668 15.194 57.5176 15.194V13.194C54.398 13.194 52.0176 15.9305 52.0176 19.1141H54.0176ZM57.5176 15.194C59.3685 15.194 61.0177 16.8633 61.0177 19.1141H63.0177C63.0177 15.9304 60.6373 13.194 57.5176 13.194V15.194Z" fill="#7B878D" mask="url(#path-2-inside-1)"/>
<path d="M92.4441 9.42613C87.9637 11.6306 83.037 17.8518 81.482 25.6768C79.5091 35.5828 87.7114 39.7661 88.3816 38.4012C89.1701 36.7824 86.9071 36.2391 86.445 31.1027C85.8504 24.4607 88.4699 17.0398 91.7755 13.7835C92.3921 13.1883 92.3621 14.0283 92.3621 15.5767C92.3621 18.3693 92.2297 43.354 92.2297 48.5702C92.2297 55.6313 91.9836 57.8546 91.5294 60.05C91.0831 62.2827 90.3608 63.7883 90.9049 64.3743C91.5215 65.0214 94.141 63.4805 95.6598 60.9884C97.4765 58.0029 98.1168 54.4148 98.235 50.5208C98.3691 45.8313 98.3612 38.3752 98.3691 34.1308C98.3691 30.2274 98.4211 18.8161 98.317 11.946C98.2871 10.2661 94.3129 8.50631 92.4441 9.42613ZM299.011 46.4954C298.371 46.4954 298.067 47.2834 297.821 48.6055C296.972 53.2171 296.08 54.2574 294.925 54.2574C293.638 54.2574 292.484 51.9748 292.18 47.4057C291.949 43.8177 291.986 37.2016 292.284 30.6207C292.344 29.2727 292.03 27.9357 288.948 26.6136C287.617 26.0536 285.688 25.2136 284.73 27.9432C282.012 35.6366 280.956 41.7614 280.702 44.2387C280.696 44.3684 280.561 44.387 280.538 44.0903C280.383 42.1025 280.025 38.4884 279.981 30.8915C279.965 29.4229 279.705 28.1526 278.306 27.1199C277.406 26.4559 274.666 25.2655 273.676 26.6748C272.828 27.83 271.839 30.9285 270.804 34.6037C269.97 37.5966 269.39 39.627 269.39 39.627C269.39 39.627 269.396 31.5571 269.412 28.4939C269.412 27.3386 268.741 26.9548 268.541 26.8843C267.625 26.5691 265.816 26.0536 265.058 26.0536C264.113 26.0536 263.889 26.6748 263.889 27.576C263.889 27.6891 263.733 38.19 263.733 45.533V46.5657C263.219 49.9444 261.523 54.53 259.684 54.53C257.846 54.53 256.975 52.6126 256.975 43.8622C256.975 38.7592 257.109 36.5378 257.169 32.8441C257.205 30.7171 257.279 29.0816 257.273 28.7053C257.257 27.576 255.583 26.9975 254.808 26.7879C254.028 26.5691 253.349 26.4986 252.815 26.5246C252.071 26.5783 251.542 27.155 251.542 27.9617V29.1855C250.582 27.4016 249.025 26.1575 247.984 25.7995C245.201 24.8279 242.29 25.6938 240.094 29.2986C238.353 32.171 237.303 35.4159 236.894 40.0814C236.588 43.495 236.686 46.9515 237.229 49.8739C236.574 53.1726 235.368 54.53 234.051 54.53C232.13 54.53 230.747 50.8529 230.903 44.4908C231.015 40.3094 231.722 37.3778 232.502 33.124C232.838 31.3123 232.562 30.3686 231.886 29.4488C231.268 28.6254 229.943 28.1971 228.046 28.7126C226.697 29.0891 224.756 29.4914 222.991 29.7992C222.991 29.7992 223.095 29.2986 223.185 28.416C223.639 23.7857 219.359 24.1622 217.997 25.6419C217.178 26.5246 216.62 27.5667 216.412 29.4396C216.077 32.4157 218.139 33.8156 218.139 33.8156C217.462 37.4557 215.809 42.2156 214.09 45.6554C213.174 47.5023 212.474 48.8596 211.567 50.3115C211.559 49.7775 211.559 49.2341 211.559 48.7019C211.543 41.0438 211.625 35.0154 211.663 32.8441C211.701 30.7171 211.775 29.1243 211.775 28.7478C211.759 27.9245 211.351 27.6019 210.486 27.2162C209.728 26.8676 208.827 26.6136 207.897 26.5246C206.728 26.4207 206.014 27.155 206.036 28.021V29.1855C205.069 27.4016 203.513 26.1575 202.486 25.7995C199.695 24.8279 196.785 25.6938 194.59 29.2986C192.855 32.171 191.708 36.1874 191.38 40.0369C191.084 43.6434 191.136 46.6881 191.552 49.2619C191.106 51.8338 189.833 54.53 188.39 54.53C186.551 54.53 185.501 52.6126 185.501 43.8622C185.501 38.7592 185.635 36.5378 185.703 32.8441C185.739 30.7171 185.807 29.0816 185.799 28.7053C185.791 27.576 184.118 26.9975 183.336 26.7879C182.525 26.5616 181.817 26.4912 181.281 26.5246C180.566 26.595 180.068 27.3386 180.068 27.9078V29.1855C179.101 27.4016 177.545 26.1575 176.51 25.7995C173.727 24.8279 170.839 25.7124 168.628 29.2986C167.185 31.6369 166.017 34.2348 165.414 39.9942C165.25 41.6575 165.168 43.2133 165.176 44.667C164.602 48.7965 162.064 53.5583 159.995 53.5583C158.775 53.5583 157.614 50.7917 157.614 44.8858C157.614 37.0273 158.03 25.8255 158.104 24.7407C158.104 24.7407 160.724 24.6869 161.238 24.6796C162.541 24.6702 163.731 24.7056 165.466 24.5999C166.345 24.548 167.185 20.8634 166.277 20.3999C165.875 20.1977 162.987 20.0141 161.84 19.9882C160.874 19.9622 158.201 19.7268 158.201 19.7268C158.201 19.7268 158.44 12.2966 158.492 11.5178C158.537 10.852 157.822 10.5202 157.406 10.318C156.4 9.81178 155.499 9.57452 154.443 9.32044C152.962 8.96261 152.299 9.31307 152.173 10.7724C151.979 12.9882 151.875 19.482 151.875 19.482C150.788 19.482 147.105 19.2261 146.024 19.2261C145.021 19.2261 143.933 24.3031 145.326 24.3643C146.926 24.4348 149.702 24.5053 151.547 24.5645C151.547 24.5645 151.465 35.9518 151.465 39.4601V40.5449C150.446 46.766 146.881 50.1279 146.881 50.1279C147.647 46.0058 146.084 42.9165 143.256 40.3095C142.214 39.3378 140.161 37.5076 137.86 35.5216C137.86 35.5216 139.192 33.9733 140.375 30.8748C141.21 28.6775 141.247 26.15 139.192 25.5974C135.799 24.6796 133.007 27.6112 132.167 30.7431C131.526 33.1592 131.862 34.9616 133.133 36.8251L133.424 37.2461C132.665 38.978 131.608 41.3144 130.722 43.1261C128.244 48.1587 126.376 52.1324 124.969 52.1324C123.838 52.1324 123.852 48.0975 123.852 44.3165C123.852 41.0604 124.061 36.152 124.225 31.0769C124.277 29.4043 123.562 28.4419 122.365 27.576C121.635 27.0512 120.086 26.0184 119.186 26.0184C117.847 26.0184 113.961 26.2278 110.293 38.698C109.831 40.2741 108.922 43.1354 108.922 43.1354L109.004 28.1359C109.004 27.7855 108.848 27.4536 108.484 27.2162C107.866 26.8231 106.207 26.0184 104.748 26.0184C104.04 26.0184 103.69 26.4041 103.69 27.1644L103.571 50.6175C103.571 52.4032 103.608 54.4855 103.758 55.396C103.906 56.3063 104.152 57.05 104.45 57.495C104.748 57.9251 105.097 58.2571 105.663 58.4055C106.191 58.5371 109.101 58.9654 109.25 57.6619C109.437 56.095 109.443 54.4076 110.969 48.0808C113.351 38.2437 116.448 33.4485 117.907 31.7407C118.167 31.444 118.457 31.4255 118.441 31.9169C118.375 34.0771 118.159 39.4601 118.011 44.0366C117.617 56.2972 119.506 58.5631 122.223 58.5631C124.292 58.5631 127.21 56.1395 130.344 50.0147C132.301 46.1894 134.192 42.453 135.561 39.7494C136.499 40.7803 137.57 41.8929 138.634 43.0834C141.113 45.839 141.924 48.4646 141.381 50.9512C140.971 52.8574 139.416 54.8174 136.655 52.9112C135.851 52.3587 135.508 51.9303 134.698 51.2998C134.266 50.9586 133.595 50.8622 133.201 51.2127C132.159 52.1324 131.57 53.295 131.228 54.7396C130.908 56.1488 132.107 56.8831 133.349 57.5302C134.414 58.0995 136.707 58.5983 138.172 58.6595C143.881 58.8875 148.451 55.4219 151.629 46.4954C152.203 54.2055 154.621 58.5724 158.827 58.5724C161.646 58.5724 164.468 54.2926 165.704 50.0834C166.053 51.7986 166.581 53.2857 167.259 54.556C170.505 60.5935 176.8 59.2992 179.956 54.1702C180.939 52.5774 181.088 52.0082 181.088 52.0082C181.549 56.8497 184.869 58.5538 186.767 58.5538C188.903 58.5538 191.092 57.3652 192.631 53.2857C192.817 53.7327 193.011 54.1535 193.235 54.556C196.473 60.5935 202.768 59.2992 205.932 54.1702C206.074 53.9163 206.208 53.7067 206.318 53.5046L206.416 56.6902C206.416 56.6902 204.607 58.6336 203.498 59.8314C198.624 65.0921 194.916 69.0825 194.642 73.7201C194.299 79.6446 198.378 81.8419 201.474 82.1293C204.749 82.4372 207.563 80.3102 209.288 77.3174C210.806 74.6917 211.805 69.0473 211.731 63.464C211.701 61.2239 211.655 58.3888 211.611 55.3348C213.33 53.0076 215.265 50.0481 217.037 46.5844C218.979 42.8201 221.048 37.7523 222.104 33.8064C222.104 33.8064 223.913 33.8249 225.834 33.6841C226.452 33.6396 226.631 33.7898 226.511 34.3145C226.377 34.9524 224.085 45.3586 226.176 52.29C227.613 57.0315 230.835 58.5631 232.756 58.5631C234.995 58.5631 237.14 56.5678 238.285 53.6103C238.427 53.9348 238.569 54.2574 238.733 54.556C241.971 60.5935 248.244 59.29 251.43 54.1702C252.152 53.0076 252.554 52.0082 252.554 52.0082C253.239 57.024 256.558 58.5724 258.456 58.5724C260.443 58.5724 262.318 57.6192 263.844 53.3822C263.904 55.2476 264.001 56.77 264.165 57.2502C264.261 57.5488 264.827 57.916 265.229 58.0995C267.044 58.8875 268.891 58.5112 269.568 58.3443C270.044 58.2311 270.416 57.7936 270.462 56.6383C270.594 53.6103 270.512 48.5258 271.294 44.7375C272.611 38.4014 273.832 35.9426 274.412 34.7261C274.734 34.0419 275.105 33.9288 275.112 34.6464C275.135 36.1075 275.202 40.3965 275.715 46.1727C276.081 50.4079 276.579 52.9186 276.966 53.716C278.052 55.9819 279.407 56.0876 280.501 56.0876C281.201 56.0876 282.66 55.8595 282.533 54.415C282.466 53.716 282.578 49.3658 283.865 43.1187C284.714 39.0318 286.12 35.3474 286.627 33.9992C286.821 33.5005 286.903 33.8861 286.903 33.964C286.79 36.7733 286.552 45.9705 287.519 50.9938C288.845 57.8121 292.662 58.5724 293.995 58.5724C296.83 58.5724 299.161 56.0338 299.942 49.3491C300.136 47.7377 299.852 46.4954 299.011 46.4954H299.011ZM180.008 42.3656C179.852 45.9 179.264 48.8595 178.327 51.003C176.614 54.897 173.244 56.1226 171.762 50.5134C170.683 46.4619 171.047 40.9304 171.501 37.9451C172.156 33.517 173.817 30.3851 176.406 30.6724C179.056 30.9804 180.35 34.9968 180.008 42.3656ZM205.976 42.4176C205.828 45.7516 205.091 49.1116 204.287 51.003C202.628 54.923 199.159 56.1486 197.722 50.5134C196.741 46.6528 196.971 41.674 197.462 38.5403C198.096 34.4627 199.621 30.6724 202.368 30.6724C205.039 30.6724 206.356 34.1214 205.976 42.4176V42.4176ZM206.654 65.205C206.616 71.3057 205.806 76.6441 204.063 78.2017C201.578 80.4066 198.236 78.7433 198.928 74.2985C199.539 70.36 202.434 66.3436 206.662 61.4334C206.662 61.4334 206.676 62.5533 206.654 65.205H206.654ZM251.49 42.4528C251.34 46.1206 250.648 48.9818 249.793 51.003C248.132 54.923 244.694 56.1393 243.228 50.5134C242.431 47.4409 242.394 42.3119 242.968 38.0341C243.548 33.6746 245.179 30.3851 247.872 30.6724C250.536 30.971 251.78 34.9968 251.49 42.4528Z" fill="#7B878D"/>
</svg>
